<svg xmlns="http://www.w3.org/2000/svg" xmlns:xlink="http://www.w3.org/1999/xlink" width="500" zoomAndPan="magnify" viewBox="0 0 375 374.999991" height="500" preserveAspectRatio="xMidYMid meet" version="1.0"><defs><clipPath id="f48a44c727"><path d="M 39.015625 43.875 L 336 43.875 L 336 331 L 39.015625 331 Z M 39.015625 43.875 " clip-rule="nonzero"/></clipPath></defs><g clip-path="url(#f48a44c727)"><path fill="#326ce5" d="M 186.59375 43.863281 C 183.929688 44.019531 181.398438 44.691406 179.003906 45.875 L 76.207031 94.902344 C 70.839844 97.457031 66.9375 102.320312 65.601562 108.109375 L 40.4375 218.148438 C 39.238281 223.3125 40.207031 228.726562 43.203125 233.15625 C 43.554688 233.691406 43.925781 234.207031 44.3125 234.703125 L 115.332031 323.003906 C 119.085938 327.617188 124.722656 330.261719 130.664062 330.234375 L 244.574219 330.234375 C 250.53125 330.246094 256.179688 327.46875 259.921875 322.921875 L 330.90625 234.601562 C 334.632812 229.992188 336.027344 223.90625 334.597656 218.132812 L 309.269531 108 C 307.929688 102.207031 304.011719 97.347656 298.660156 94.792969 L 196.03125 45.882812 C 193.027344 44.402344 189.851562 43.730469 186.503906 43.863281 Z M 186.59375 43.863281 " fill-opacity="1" fill-rule="nonzero"/></g><path stroke-linecap="butt" transform="matrix(9.223601, 0, 0, 9.222886, 39.939827, 39.474555)" fill-opacity="1" fill="#ffffff" fill-rule="nonzero" stroke-linejoin="miter" d="M 16.00192 4.541824 C 15.6178 4.56893 15.326851 4.89802 15.34718 5.28217 L 15.34718 5.469797 C 15.364967 5.682837 15.397153 5.894183 15.43908 6.102988 C 15.500489 6.504079 15.522511 6.907711 15.505147 7.313038 C 15.467032 7.446029 15.390801 7.565891 15.287042 7.657799 L 15.271795 7.939875 C 14.866924 7.974182 14.465017 8.036019 14.069039 8.125809 C 12.402966 8.501911 10.885968 9.36593 9.714974 10.611134 L 9.474846 10.440872 C 9.343136 10.481108 9.200838 10.465861 9.080139 10.401059 C 8.754463 10.160066 8.455467 9.890271 8.183153 9.59083 C 8.046361 9.427767 7.900675 9.272752 7.746095 9.126208 L 7.597868 9.00804 C 7.466157 8.902156 7.303955 8.841166 7.134976 8.833119 C 7.032911 8.827613 6.934657 8.845825 6.841063 8.887332 C 6.747468 8.928838 6.668696 8.989405 6.603899 9.06903 C 6.378171 9.385837 6.451861 9.825047 6.767796 10.052063 L 6.905859 10.162183 C 7.083732 10.280351 7.267957 10.38793 7.458111 10.48492 C 7.812162 10.681865 8.145884 10.913118 8.455891 11.18503 C 8.53678 11.300232 8.581249 11.428141 8.588872 11.569179 L 8.806977 11.769089 C 7.630054 13.534823 7.146834 15.674117 7.448794 17.774869 L 7.168856 17.854918 C 7.096013 17.970968 6.99903 18.070076 6.88299 18.142924 C 6.491247 18.247539 6.093575 18.313187 5.689127 18.33987 C 5.474833 18.344529 5.261386 18.361047 5.049209 18.389848 L 4.872184 18.430084 L 4.851855 18.430084 C 4.790447 18.438555 4.73158 18.455073 4.67483 18.480061 C 4.61808 18.50505 4.565565 18.537239 4.517709 18.576628 C 4.469853 18.616017 4.428349 18.661336 4.393198 18.712584 C 4.358047 18.763409 4.330096 18.818045 4.310191 18.876917 C 4.289863 18.935366 4.278428 18.995932 4.27504 19.057768 C 4.271652 19.119605 4.276734 19.181018 4.29071 19.241161 C 4.304262 19.301727 4.325861 19.359328 4.355506 19.413964 C 4.385152 19.468177 4.421573 19.517731 4.465194 19.562203 C 4.508815 19.606251 4.557519 19.643522 4.611727 19.674017 C 4.665936 19.704512 4.723109 19.726959 4.783671 19.74136 C 4.843809 19.756184 4.905217 19.762113 4.967472 19.759572 C 5.029304 19.757031 5.089866 19.746442 5.149156 19.726959 L 5.161862 19.726959 L 5.341852 19.707053 C 5.545134 19.646911 5.745029 19.572791 5.939842 19.488931 C 6.315068 19.338998 6.703847 19.223795 7.101942 19.148829 C 7.240005 19.156876 7.372139 19.203889 7.483945 19.283938 L 7.78421 19.23396 C 8.433869 21.250852 9.800099 22.959831 11.624139 24.03689 L 11.502169 24.29186 C 11.558072 24.409181 11.578824 24.539207 11.561883 24.667963 C 11.39714 25.049995 11.195127 25.415932 10.958811 25.759846 C 10.829218 25.930955 10.710213 26.108418 10.600948 26.293081 L 10.515824 26.473085 C 10.485331 26.526451 10.462038 26.583205 10.446792 26.642924 C 10.43197 26.703067 10.425193 26.763633 10.426887 26.825469 C 10.428158 26.886882 10.438322 26.947448 10.456533 27.00632 C 10.474744 27.065192 10.501001 27.120676 10.534458 27.172348 C 10.568338 27.224443 10.608148 27.270609 10.654734 27.311268 C 10.700896 27.351928 10.75214 27.385811 10.807619 27.412071 C 10.863522 27.438753 10.921966 27.457389 10.982527 27.467978 C 11.043512 27.478566 11.104497 27.48026 11.165905 27.473907 C 11.227737 27.467131 11.287028 27.451883 11.344201 27.428589 C 11.401798 27.405294 11.454736 27.374376 11.50344 27.336257 C 11.552566 27.298139 11.594917 27.254091 11.631762 27.204113 C 11.668183 27.154135 11.697405 27.099922 11.719004 27.041898 L 11.802011 26.872059 C 11.877819 26.672148 11.942192 26.468003 11.993859 26.262163 C 12.170885 25.825071 12.267021 25.35579 12.508843 25.066089 C 12.589732 24.989852 12.685445 24.943263 12.795133 24.925898 L 12.945054 24.653139 C 13.43505 24.841614 13.938175 24.983923 14.454429 25.08049 C 14.970683 25.176633 15.491595 25.225763 16.016742 25.227034 C 16.54189 25.228305 17.062802 25.181715 17.579479 25.088113 C 18.096157 24.994088 18.599705 24.853896 19.090972 24.667963 L 19.223953 24.922933 C 19.359898 24.942839 19.481868 25.017806 19.564028 25.127926 C 19.752065 25.485816 19.904103 25.861072 20.020144 26.248186 C 20.073082 26.455296 20.137455 26.659019 20.21411 26.858929 L 20.297117 27.029191 C 20.318716 27.086793 20.347938 27.140582 20.384783 27.190136 C 20.421628 27.240114 20.464402 27.283738 20.513105 27.321857 C 20.561808 27.359552 20.61517 27.390047 20.672343 27.413341 C 20.729517 27.436636 20.788807 27.45146 20.850216 27.458236 C 20.911624 27.465013 20.973032 27.463319 21.034017 27.453154 C 21.095002 27.442989 21.153446 27.424777 21.209349 27.398517 C 21.265252 27.372258 21.316496 27.338798 21.363081 27.298139 C 21.409667 27.257902 21.4499 27.211737 21.484204 27.160065 C 21.517661 27.10797 21.543495 27.052486 21.561706 26.993191 C 21.579916 26.934319 21.589657 26.873753 21.590928 26.811916 C 21.592622 26.750079 21.585422 26.68909 21.569752 26.628947 C 21.554506 26.569228 21.531213 26.512474 21.499874 26.459108 L 21.413055 26.279104 C 21.303791 26.095288 21.184362 25.918249 21.055193 25.747987 C 20.824805 25.415932 20.627028 25.061854 20.455085 24.690834 C 20.438991 24.622644 20.43645 24.553607 20.448309 24.484147 C 20.460167 24.414687 20.485154 24.350309 20.522846 24.291013 C 20.480495 24.203764 20.443227 24.113974 20.411887 24.022066 C 22.232116 22.93696 23.591993 21.222051 24.234875 19.202195 L 24.519048 19.252173 C 24.621113 19.158994 24.754941 19.109864 24.892156 19.114099 C 25.288982 19.189912 25.678183 19.314009 26.053833 19.454201 C 26.249069 19.543991 26.448964 19.619804 26.651824 19.684182 C 26.700103 19.696888 26.769982 19.7079 26.824191 19.72103 L 26.836896 19.72103 C 26.896187 19.740089 26.956324 19.750678 27.01858 19.752795 C 27.080412 19.755337 27.141397 19.748984 27.201958 19.73416 C 27.262096 19.719759 27.319269 19.696888 27.373054 19.666393 C 27.427263 19.635899 27.475966 19.598627 27.519587 19.554579 C 27.563208 19.510108 27.59963 19.460977 27.629699 19.406764 C 27.659768 19.352551 27.68179 19.29495 27.695766 19.234807 C 27.709741 19.174241 27.715247 19.112828 27.712283 19.050992 C 27.709318 18.989155 27.697883 18.928589 27.677979 18.870141 C 27.65765 18.811269 27.630122 18.756209 27.594548 18.705384 C 27.558973 18.654559 27.51747 18.609241 27.46919 18.569852 C 27.421334 18.530462 27.368819 18.498274 27.311646 18.473708 C 27.254896 18.448719 27.195605 18.432201 27.134197 18.424154 L 26.939808 18.377989 C 26.727631 18.349188 26.514184 18.332246 26.29989 18.328011 C 25.895866 18.302175 25.496076 18.236103 25.106027 18.131065 C 24.986175 18.064146 24.885804 17.964191 24.818043 17.843059 L 24.547846 17.76301 C 24.619419 17.242481 24.643135 16.719411 24.618995 16.194646 C 24.595279 15.669458 24.52413 15.151047 24.405548 14.638988 C 24.28739 14.127353 24.123493 13.630119 23.914705 13.147708 C 23.705493 12.665721 23.454777 12.206605 23.162135 11.769937 L 23.398027 11.551814 C 23.387863 11.415011 23.433178 11.279055 23.522115 11.174018 C 23.829157 10.910153 24.162032 10.677207 24.511848 10.478143 C 24.702002 10.380729 24.886227 10.273151 25.0641 10.154983 L 25.210209 10.036816 C 25.263571 10.00378 25.311851 9.963544 25.354201 9.916531 C 25.396552 9.869518 25.431703 9.817423 25.459231 9.760669 C 25.486759 9.703914 25.50624 9.644195 25.516828 9.581935 C 25.527839 9.519675 25.529533 9.456991 25.522757 9.393884 C 25.515557 9.3312 25.500311 9.270634 25.476171 9.212186 C 25.451608 9.153738 25.419845 9.099525 25.380459 9.049971 C 25.341073 9.00084 25.295758 8.957639 25.24409 8.921215 C 25.192422 8.884367 25.136943 8.85599 25.076805 8.834813 C 25.017514 8.814059 24.956106 8.8022 24.893003 8.798812 C 24.829478 8.795424 24.767222 8.80093 24.705814 8.814907 C 24.643982 8.829307 24.585962 8.851754 24.530482 8.882673 C 24.475427 8.913168 24.425453 8.951286 24.380985 8.996181 L 24.233181 9.113925 C 24.078602 9.260469 23.932915 9.415485 23.796123 9.578971 C 23.531855 9.880954 23.24006 10.15583 22.922854 10.401906 C 22.792414 10.455272 22.657739 10.469673 22.518829 10.445954 L 22.265996 10.625958 C 20.806171 9.096136 18.838986 8.146139 16.731197 7.95597 C 16.731197 7.856015 16.718068 7.706082 16.715951 7.659069 C 16.602875 7.581138 16.524103 7.462124 16.497845 7.327015 C 16.484293 6.922112 16.50928 6.51975 16.574076 6.119929 C 16.61685 5.909854 16.646919 5.700202 16.665977 5.487162 L 16.665977 5.286829 C 16.685882 4.903102 16.396204 4.574013 16.010813 4.546906 Z M 15.168037 9.70815 L 14.968142 13.201074 L 14.952895 13.201074 C 14.943155 13.417079 14.816103 13.600895 14.620867 13.705085 C 14.426054 13.808852 14.19482 13.777934 14.021182 13.650872 L 11.156165 11.620851 C 11.611857 11.17317 12.120488 10.796221 12.681633 10.490849 C 13.243202 10.185054 13.835263 9.962273 14.459088 9.822082 C 14.692863 9.772104 14.929179 9.733986 15.165919 9.70815 Z M 16.835803 9.70815 C 18.340943 9.89493 19.741901 10.570898 20.826076 11.631863 L 17.988163 13.649178 C 17.812831 13.788946 17.573127 13.816899 17.369844 13.72118 C 17.166985 13.625036 17.036968 13.420891 17.034004 13.196839 Z M 10.116034 12.935092 L 12.735842 15.273026 L 12.735842 15.28785 C 12.898892 15.430159 12.970041 15.650822 12.922185 15.862168 C 12.873905 16.073091 12.712126 16.239965 12.505031 16.297143 L 12.505031 16.306884 L 9.142817 17.273823 C 9.101737 16.89772 9.091573 16.521195 9.112749 16.143398 C 9.1335 15.765601 9.185592 15.39204 9.268599 15.022714 C 9.351182 14.653812 9.463835 14.293804 9.606133 13.943538 C 9.748854 13.592847 9.919104 13.256558 10.116881 12.933821 Z M 21.869171 12.935092 C 22.664939 14.22985 23.016872 15.749083 22.871186 17.261964 L 19.50389 16.29206 L 19.50389 16.27893 C 19.293831 16.222176 19.13417 16.054878 19.087161 15.843956 C 19.040151 15.633034 19.11003 15.414064 19.27308 15.270061 L 21.872983 12.943139 Z M 15.464914 15.455147 L 16.536808 15.455147 L 17.191971 16.286978 L 16.953961 17.327189 L 15.990909 17.790117 L 15.026162 17.327189 L 14.799163 16.286978 Z M 18.899124 18.292857 C 18.944015 18.288198 18.999071 18.288198 19.033799 18.292857 L 22.501042 18.878188 C 22.000881 20.317796 21.014113 21.548176 19.725807 22.371112 L 18.385835 19.126805 C 18.367624 19.083604 18.354495 19.038285 18.346872 18.991696 C 18.339249 18.945107 18.337555 18.898094 18.340943 18.851081 C 18.344755 18.804069 18.354072 18.757903 18.368894 18.713008 C 18.383294 18.668113 18.403198 18.625759 18.428185 18.585523 C 18.453172 18.545286 18.482394 18.508862 18.516274 18.475826 C 18.550155 18.44279 18.587 18.413989 18.627657 18.389848 C 18.668313 18.365706 18.711087 18.346647 18.756402 18.333093 C 18.801718 18.319117 18.84788 18.310646 18.894889 18.308105 Z M 13.075917 18.308105 C 13.272 18.311069 13.452837 18.411872 13.559984 18.576205 C 13.667131 18.740114 13.684072 18.945954 13.606994 19.125958 L 13.606994 19.139088 L 12.275067 22.357135 C 10.999891 21.540129 10.03218 20.324996 9.517197 18.899788 L 12.953947 18.316999 C 12.992063 18.313187 13.031026 18.313187 13.069988 18.316999 Z M 15.979897 19.7079 C 16.03453 19.706206 16.088315 19.712136 16.141677 19.725265 C 16.194615 19.738395 16.244589 19.758725 16.292021 19.785831 C 16.339454 19.812938 16.382228 19.846397 16.420767 19.885363 C 16.458883 19.924329 16.491069 19.967953 16.516903 20.015813 L 16.530032 20.015813 L 18.224055 23.072916 L 17.546869 23.272826 C 16.300915 23.557868 14.999905 23.490949 13.789101 23.078845 L 15.489054 20.022166 C 15.591966 19.842162 15.78212 19.732042 15.989215 19.726959 Z M 15.979897 19.7079 " stroke="#ffffff" stroke-width="0.055" stroke-opacity="1" stroke-miterlimit="4"/></svg>