<svg xmlns="http://www.w3.org/2000/svg" xmlns:xlink="http://www.w3.org/1999/xlink" width="500" zoomAndPan="magnify" viewBox="0 0 375 374.999991" height="500" preserveAspectRatio="xMidYMid meet" version="1.0"><defs><filter x="0%" y="0%" width="100%" height="100%" id="3a9406e5ac"><feColorMatrix values="0 0 0 0 1 0 0 0 0 1 0 0 0 0 1 0 0 0 1 0" color-interpolation-filters="sRGB"/></filter><mask id="e197135132"><g filter="url(#3a9406e5ac)"><rect x="-37.5" width="450" fill="#000000" y="-37.499999" height="449.999989" fill-opacity="0.65"/></g></mask><clipPath id="cf86acad23"><path d="M 0.5 0.00390625 L 330.492188 0.00390625 L 330.492188 375 L 0.5 375 Z M 0.5 0.00390625 " clip-rule="nonzero"/></clipPath><clipPath id="c0c535c623"><rect x="0" width="331" y="0" height="375"/></clipPath><clipPath id="6781fdb4f6"><path d="M 149.703125 127.914062 L 225.453125 127.914062 L 225.453125 247.164062 L 149.703125 247.164062 Z M 149.703125 127.914062 " clip-rule="nonzero"/></clipPath></defs><g mask="url(#e197135132)"><g transform="matrix(1, 0, 0, 1, 22, 0)"><g clip-path="url(#c0c535c623)"><g clip-path="url(#cf86acad23)"><path fill="#4cffa3" d="M 165.496094 13.652344 C 164.492188 13.652344 163.488281 13.910156 162.59375 14.425781 L 17.054688 98.453125 C 15.265625 99.488281 14.15625 101.410156 14.15625 103.476562 L 14.15625 271.53125 C 14.15625 273.597656 15.265625 275.523438 17.054688 276.554688 L 162.59375 360.582031 C 164.382812 361.613281 166.605469 361.613281 168.394531 360.582031 L 313.933594 276.554688 C 315.722656 275.523438 316.835938 273.597656 316.835938 271.53125 L 316.835938 103.476562 C 316.835938 101.410156 315.722656 99.488281 313.933594 98.453125 L 168.394531 14.425781 C 167.5 13.910156 166.496094 13.652344 165.496094 13.652344 Z M 165.496094 375.003906 C 162.128906 375.003906 158.765625 374.140625 155.765625 372.410156 L 10.226562 288.378906 C 4.226562 284.917969 0.5 278.460938 0.5 271.53125 L 0.5 103.476562 C 0.5 96.550781 4.226562 90.09375 10.226562 86.628906 L 155.765625 2.601562 C 161.765625 -0.863281 169.222656 -0.863281 175.222656 2.601562 L 320.761719 86.628906 C 326.761719 90.09375 330.492188 96.550781 330.492188 103.476562 L 330.492188 271.53125 C 330.492188 278.460938 326.761719 284.917969 320.761719 288.382812 L 175.222656 372.410156 C 172.222656 374.140625 168.859375 375.003906 165.496094 375.003906 " fill-opacity="1" fill-rule="nonzero"/></g></g></g></g><g clip-path="url(#6781fdb4f6)"><path fill="#ffffff" d="M 112.816406 -14.40625 C 86.484375 -14.40625 64.929688 7.144531 64.929688 33.476562 L 64.929688 263.324219 C 64.929688 289.660156 86.480469 311.210938 112.816406 311.210938 L 400.125 311.210938 C 426.460938 311.210938 448.011719 289.660156 448.011719 263.324219 L 448.011719 71.785156 C 448.007812 71.15625 447.949219 70.53125 447.824219 69.917969 C 447.703125 69.300781 447.519531 68.699219 447.28125 68.121094 C 447.039062 67.539062 446.746094 66.988281 446.394531 66.464844 C 446.046875 65.941406 445.648438 65.457031 445.203125 65.011719 C 444.761719 64.570312 444.277344 64.171875 443.753906 63.820312 C 443.230469 63.472656 442.679688 63.175781 442.097656 62.9375 C 441.515625 62.695312 440.917969 62.515625 440.300781 62.390625 C 439.683594 62.269531 439.0625 62.207031 438.433594 62.207031 L 112.816406 62.207031 C 112.179688 62.199219 111.550781 62.253906 110.929688 62.367188 C 110.304688 62.484375 109.699219 62.660156 109.109375 62.898438 C 108.519531 63.132812 107.960938 63.425781 107.429688 63.773438 C 106.898438 64.121094 106.40625 64.519531 105.957031 64.964844 C 105.503906 65.410156 105.101562 65.894531 104.746094 66.421875 C 104.390625 66.945312 104.089844 67.503906 103.84375 68.089844 C 103.601562 68.671875 103.414062 69.277344 103.289062 69.898438 C 103.164062 70.523438 103.101562 71.148438 103.101562 71.785156 C 103.101562 72.417969 103.164062 73.046875 103.289062 73.667969 C 103.414062 74.292969 103.601562 74.894531 103.84375 75.480469 C 104.089844 76.066406 104.390625 76.621094 104.746094 77.148438 C 105.101562 77.671875 105.503906 78.160156 105.957031 78.605469 C 106.40625 79.050781 106.898438 79.445312 107.429688 79.796875 C 107.960938 80.144531 108.519531 80.433594 109.109375 80.671875 C 109.699219 80.910156 110.304688 81.085938 110.929688 81.199219 C 111.550781 81.316406 112.179688 81.371094 112.816406 81.363281 L 428.855469 81.363281 L 428.855469 263.324219 C 428.855469 279.316406 416.117188 292.054688 400.125 292.054688 L 112.816406 292.054688 C 96.820312 292.054688 84.085938 279.316406 84.085938 263.324219 L 84.085938 33.476562 C 84.085938 17.496094 96.835938 4.746094 112.816406 4.746094 L 400.125 4.746094 C 416.105469 4.746094 428.855469 17.496094 428.855469 33.476562 C 428.847656 34.113281 428.898438 34.742188 429.015625 35.363281 C 429.132812 35.988281 429.308594 36.59375 429.546875 37.183594 C 429.78125 37.773438 430.074219 38.332031 430.421875 38.863281 C 430.769531 39.394531 431.167969 39.886719 431.613281 40.335938 C 432.058594 40.789062 432.542969 41.191406 433.070312 41.546875 C 433.59375 41.902344 434.152344 42.203125 434.734375 42.449219 C 435.320312 42.695312 435.925781 42.878906 436.546875 43.003906 C 437.167969 43.128906 437.796875 43.191406 438.433594 43.191406 C 439.066406 43.191406 439.695312 43.128906 440.316406 43.003906 C 440.941406 42.878906 441.542969 42.695312 442.128906 42.449219 C 442.714844 42.203125 443.269531 41.902344 443.796875 41.546875 C 444.320312 41.191406 444.808594 40.789062 445.253906 40.335938 C 445.699219 39.886719 446.09375 39.394531 446.445312 38.863281 C 446.792969 38.332031 447.082031 37.773438 447.320312 37.183594 C 447.558594 36.59375 447.734375 35.988281 447.847656 35.363281 C 447.964844 34.742188 448.019531 34.113281 448.011719 33.476562 C 448.011719 7.144531 426.457031 -14.40625 400.125 -14.40625 Z M 160.886719 129.152344 C 159.894531 129.121094 158.917969 129.246094 157.964844 129.515625 C 157.007812 129.789062 156.117188 130.203125 155.289062 130.753906 C 154.460938 131.304688 153.738281 131.96875 153.117188 132.742188 C 152.496094 133.519531 152.007812 134.371094 151.652344 135.300781 C 151.296875 136.226562 151.089844 137.1875 151.035156 138.179688 C 150.976562 139.171875 151.074219 140.148438 151.320312 141.113281 C 151.566406 142.074219 151.957031 142.976562 152.484375 143.820312 C 153.011719 144.660156 153.65625 145.402344 154.414062 146.042969 L 201.140625 186.707031 L 154.414062 227.375 C 153.917969 227.777344 153.464844 228.230469 153.054688 228.726562 C 152.648438 229.222656 152.292969 229.753906 151.992188 230.320312 C 151.691406 230.890625 151.449219 231.480469 151.265625 232.097656 C 151.085938 232.714844 150.96875 233.34375 150.910156 233.984375 C 150.855469 234.625 150.867188 235.261719 150.9375 235.902344 C 151.011719 236.539062 151.148438 237.164062 151.347656 237.773438 C 151.546875 238.386719 151.804688 238.972656 152.121094 239.53125 C 152.4375 240.089844 152.808594 240.613281 153.230469 241.097656 C 153.652344 241.582031 154.117188 242.019531 154.628906 242.410156 C 155.136719 242.800781 155.683594 243.136719 156.257812 243.417969 C 156.835938 243.699219 157.4375 243.921875 158.058594 244.082031 C 158.683594 244.242188 159.3125 244.339844 159.957031 244.371094 C 160.597656 244.40625 161.234375 244.375 161.871094 244.28125 C 162.507812 244.183594 163.125 244.027344 163.730469 243.808594 C 164.335938 243.589844 164.910156 243.308594 165.457031 242.972656 C 166.007812 242.636719 166.515625 242.25 166.984375 241.8125 L 222.015625 193.929688 C 222.53125 193.480469 222.992188 192.980469 223.402344 192.429688 C 223.8125 191.882812 224.15625 191.296875 224.441406 190.675781 C 224.722656 190.050781 224.9375 189.40625 225.082031 188.738281 C 225.226562 188.070312 225.300781 187.390625 225.300781 186.707031 C 225.300781 186.023438 225.226562 185.347656 225.082031 184.679688 C 224.9375 184.011719 224.722656 183.363281 224.441406 182.742188 C 224.15625 182.121094 223.8125 181.535156 223.402344 180.984375 C 222.992188 180.4375 222.53125 179.9375 222.015625 179.488281 L 166.984375 131.601562 C 166.144531 130.847656 165.203125 130.261719 164.152344 129.839844 C 163.105469 129.417969 162.015625 129.1875 160.886719 129.152344 Z M 266.046875 225.015625 C 265.414062 225.007812 264.785156 225.0625 264.160156 225.175781 C 263.535156 225.292969 262.929688 225.46875 262.339844 225.707031 C 261.75 225.941406 261.191406 226.234375 260.660156 226.582031 C 260.128906 226.929688 259.640625 227.328125 259.1875 227.773438 C 258.734375 228.21875 258.332031 228.703125 257.976562 229.230469 C 257.621094 229.753906 257.320312 230.3125 257.078125 230.898438 C 256.832031 231.480469 256.648438 232.085938 256.523438 232.707031 C 256.398438 233.332031 256.335938 233.957031 256.335938 234.59375 C 256.335938 235.226562 256.398438 235.855469 256.523438 236.476562 C 256.648438 237.101562 256.832031 237.703125 257.078125 238.289062 C 257.320312 238.875 257.621094 239.429688 257.976562 239.957031 C 258.332031 240.480469 258.734375 240.96875 259.1875 241.414062 C 259.640625 241.859375 260.128906 242.253906 260.660156 242.605469 C 261.191406 242.953125 261.75 243.242188 262.339844 243.480469 C 262.929688 243.71875 263.535156 243.894531 264.160156 244.007812 C 264.785156 244.125 265.414062 244.179688 266.046875 244.171875 L 352.238281 244.171875 C 352.875 244.179688 353.503906 244.125 354.128906 244.007812 C 354.75 243.894531 355.359375 243.71875 355.945312 243.480469 C 356.535156 243.242188 357.09375 242.953125 357.625 242.605469 C 358.15625 242.253906 358.648438 241.859375 359.101562 241.414062 C 359.550781 240.96875 359.957031 240.480469 360.308594 239.957031 C 360.664062 239.429688 360.964844 238.875 361.210938 238.289062 C 361.457031 237.703125 361.640625 237.101562 361.765625 236.476562 C 361.890625 235.855469 361.953125 235.226562 361.953125 234.59375 C 361.953125 233.957031 361.890625 233.332031 361.765625 232.707031 C 361.640625 232.085938 361.457031 231.480469 361.210938 230.898438 C 360.964844 230.3125 360.664062 229.753906 360.308594 229.230469 C 359.957031 228.703125 359.550781 228.21875 359.101562 227.773438 C 358.648438 227.328125 358.15625 226.929688 357.625 226.582031 C 357.09375 226.234375 356.535156 225.941406 355.945312 225.707031 C 355.359375 225.46875 354.75 225.292969 354.128906 225.175781 C 353.503906 225.0625 352.875 225.007812 352.238281 225.015625 Z M 266.046875 225.015625 " fill-opacity="1" fill-rule="nonzero"/></g></svg>