<svg xmlns="http://www.w3.org/2000/svg" xmlns:xlink="http://www.w3.org/1999/xlink" width="500" zoomAndPan="magnify" viewBox="0 0 375 374.999991" height="500" preserveAspectRatio="xMidYMid meet" version="1.0"><defs><clipPath id="8a69e78c50"><path d="M 52 45.328125 L 323 45.328125 L 323 328 L 52 328 Z M 52 45.328125 " clip-rule="nonzero"/></clipPath></defs><path fill="#000000" d="M 304.71875 220.542969 C 304.71875 220.558594 304.710938 220.566406 304.695312 220.566406 C 304.679688 220.566406 304.671875 220.558594 304.671875 220.542969 C 304.671875 220.527344 304.679688 220.519531 304.695312 220.519531 C 304.710938 220.519531 304.71875 220.527344 304.71875 220.542969 Z M 304.71875 220.542969 " fill-opacity="1" fill-rule="nonzero"/><path fill="#32648d" d="M 269.9375 218.308594 L 269.960938 218.332031 L 269.960938 218.34375 L 269.925781 218.355469 C 268.222656 218.980469 266.816406 219.238281 265.628906 219.765625 C 264.421875 220.246094 263.449219 221.128906 262.875 222.257812 L 262.863281 222.28125 C 262.132812 223.628906 261.5 226.027344 261.6875 230.101562 C 262.167969 230.453125 262.757812 230.726562 263.355469 230.914062 L 263.402344 230.925781 C 265.382812 231.535156 268.707031 231.933594 272.414062 231.875 C 279.804688 231.792969 288.910156 230.042969 293.746094 227.765625 C 297.910156 225.78125 301.476562 223.382812 304.660156 220.542969 C 288.511719 223.925781 279.394531 223.019531 273.796875 220.683594 C 272.34375 220.046875 271.0625 219.261719 269.9375 218.308594 Z M 269.9375 218.308594 " fill-opacity="1" fill-rule="nonzero"/><path fill="#32648d" d="M 253.378906 94.085938 L 253.449219 94.191406 L 253.53125 94.285156 Z M 253.378906 94.085938 " fill-opacity="1" fill-rule="nonzero"/><path fill="#32648d" d="M 191.625 272.011719 C 191.613281 271.71875 191.625 271.414062 191.613281 271.117188 C 191.613281 271 191.601562 270.917969 191.601562 270.800781 Z M 191.625 272.011719 " fill-opacity="1" fill-rule="nonzero"/><path fill="#32648d" d="M 179.246094 220.175781 C 178.5625 219.835938 177.765625 219.589844 176.910156 219.472656 L 176.875 219.472656 L 176.875 219.449219 L 176.628906 219.449219 C 176.019531 219.507812 175.125 219.71875 173.390625 221.65625 C 169.351562 226.238281 167.945312 229.117188 164.613281 231.804688 C 161.28125 234.484375 156.960938 235.917969 148.324219 237.714844 C 145.589844 238.277344 144.019531 238.898438 142.984375 239.40625 C 143.328125 239.6875 143.292969 239.757812 143.796875 240.027344 C 145.0625 240.730469 146.683594 241.355469 147.996094 241.695312 C 151.703125 242.636719 157.804688 243.726562 164.167969 242.636719 C 170.527344 241.53125 177.144531 238.441406 182.789062 230.417969 C 183.761719 229.035156 183.867188 226.988281 183.070312 224.792969 C 182.273438 222.597656 180.488281 220.707031 179.246094 220.175781 Z M 179.246094 220.175781 " fill-opacity="1" fill-rule="nonzero"/><path fill="#32648d" d="M 226.625 62.96875 L 225.957031 63.097656 C 226.179688 63.050781 226.425781 63.027344 226.648438 62.980469 C 226.636719 62.980469 226.636719 62.96875 226.625 62.96875 Z M 226.625 62.96875 " fill-opacity="1" fill-rule="nonzero"/><path fill="#32648d" d="M 259.269531 126.375 C 251.398438 126.480469 246.984375 128.535156 244.660156 131.226562 C 241.375 135.042969 241.070312 141.738281 243.113281 149.984375 C 245.144531 158.242188 249.332031 167.472656 253.273438 175.144531 C 255.246094 178.984375 257.160156 182.4375 258.695312 185.246094 C 260.246094 188.0625 261.382812 190.058594 262.074219 191.765625 C 262.710938 193.335938 263.425781 194.722656 264.140625 196.015625 C 267.191406 189.496094 267.730469 183.09375 267.425781 176.421875 C 267.027344 168.167969 265.125 159.722656 265.40625 151.171875 C 265.726562 141.175781 267.671875 134.667969 267.835938 126.9375 C 265.265625 126.585938 262.285156 126.375 259.269531 126.375 Z M 260.726562 132.316406 L 260.714844 132.410156 C 260.714844 132.445312 260.714844 132.480469 260.714844 132.53125 C 260.714844 133.070312 260.5625 133.585938 260.292969 134.007812 L 260.304688 133.996094 C 259.941406 134.667969 259.515625 135.253906 259.023438 135.757812 C 257.875 137.039062 256.335938 137.933594 254.601562 138.238281 L 254.554688 138.25 C 254.308594 138.285156 254.027344 138.296875 253.734375 138.296875 C 252.253906 138.296875 250.894531 137.828125 249.777344 137.027344 L 249.800781 137.039062 C 249.226562 136.640625 248.722656 136.183594 248.3125 135.664062 L 248.300781 135.652344 C 247.9375 135.253906 247.675781 134.738281 247.570312 134.183594 L 247.570312 134.160156 C 247.570312 134.101562 247.558594 134.042969 247.558594 133.984375 C 247.558594 133.480469 247.75 133.011719 248.066406 132.660156 C 248.441406 132.222656 248.886719 131.871094 249.402344 131.613281 L 249.425781 131.601562 C 250.539062 130.96875 252.042969 130.496094 253.746094 130.238281 C 254.378906 130.144531 255.011719 130.097656 255.597656 130.085938 L 255.597656 130.121094 L 256.171875 130.121094 C 256.9375 130.144531 257.640625 130.226562 258.261719 130.378906 C 258.882812 130.519531 259.421875 130.730469 259.859375 131.027344 C 260.292969 131.320312 260.621094 131.765625 260.726562 132.316406 Z M 260.726562 132.316406 " fill-opacity="1" fill-rule="nonzero"/><path fill="#32648d" d="M 130.136719 178.136719 C 130.136719 176.023438 130.300781 173.957031 130.605469 171.925781 L 130.582031 172.148438 C 131.78125 163.46875 131.945312 155.351562 131.804688 148.9375 C 131.664062 142.691406 131.21875 138.53125 131.21875 135.9375 C 131.21875 135.898438 131.21875 135.863281 131.21875 135.828125 C 131.21875 135.792969 131.21875 135.746094 131.21875 135.710938 L 131.21875 135.652344 L 131.207031 135.582031 L 131.207031 135.570312 C 131.207031 135.546875 131.207031 135.535156 131.207031 135.511719 C 131.207031 121.605469 133.644531 108.273438 138.070312 95.90625 C 141.320312 87.167969 146.15625 78.296875 153.394531 71.109375 C 146.273438 68.738281 133.644531 65.121094 119.964844 64.4375 C 118.648438 64.367188 117.113281 64.320312 115.574219 64.320312 L 115.5625 64.320312 L 115.5625 64.332031 C 114.097656 64.332031 112.617188 64.378906 111.164062 64.460938 C 99.453125 65.144531 88.375 68.585938 80.46875 77.089844 C 72.535156 85.59375 67.3125 99.535156 68.453125 122.617188 C 68.675781 126.984375 70.550781 139.222656 73.765625 153.765625 C 76.992188 168.308594 81.535156 185.421875 87.003906 200.539062 C 92.484375 215.65625 99.125 228.808594 105.4375 235.035156 C 108.617188 238.148438 111.375 239.40625 113.875 239.300781 C 116.386719 239.183594 119.414062 237.714844 123.109375 233.214844 C 130.371094 224.359375 137.238281 216.523438 144.324219 208.914062 L 144.089844 209.160156 C 135.523438 201.582031 130.136719 190.507812 130.136719 178.136719 Z M 130.136719 178.136719 " fill-opacity="1" fill-rule="nonzero"/><path fill="#32648d" d="M 192.550781 63.746094 L 192.550781 63.722656 C 178.84375 63.757812 169.023438 67.949219 161.5625 74.234375 C 153.875 80.730469 148.722656 89.621094 145.332031 98.726562 C 141.308594 109.53125 139.933594 119.984375 139.382812 127.078125 L 139.535156 126.984375 C 143.679688 124.636719 149.113281 122.285156 154.929688 120.925781 C 160.75 119.5625 167.019531 119.152344 172.695312 121.382812 C 178.375 123.613281 183.070312 128.863281 184.769531 136.828125 C 192.925781 175.085938 182.238281 189.308594 178.292969 200.042969 C 177.039062 203.132812 175.734375 207.105469 174.644531 211.15625 L 174.457031 211.941406 C 174.949219 211.824219 175.453125 211.683594 175.945312 211.636719 C 178.726562 211.402344 180.910156 212.34375 182.203125 212.90625 C 186.167969 214.574219 188.890625 218.074219 190.355469 222.066406 C 190.742188 223.113281 191.015625 224.242188 191.179688 225.402344 C 191.332031 225.804688 191.414062 226.273438 191.414062 226.753906 C 191.414062 226.800781 191.414062 226.847656 191.414062 226.894531 C 191.226562 232.769531 191.109375 239.664062 191.109375 246.59375 C 191.109375 254.804688 191.273438 262.980469 191.578125 271.117188 C 191.847656 277.296875 192.234375 282.769531 192.714844 287.082031 C 193.21875 291.472656 193.925781 294.796875 194.371094 295.925781 C 195.847656 299.683594 198.019531 304.605469 201.9375 307.953125 C 205.855469 311.289062 211.476562 313.519531 221.746094 311.289062 C 230.652344 309.351562 236.144531 306.660156 239.816406 302.796875 C 243.488281 298.933594 245.671875 293.554688 247.066406 285.320312 C 249.167969 272.988281 253.378906 237.21875 253.898438 230.488281 C 253.660156 225.414062 254.402344 221.515625 256.007812 218.542969 C 257.652344 215.492188 260.210938 213.621094 262.402344 212.613281 C 263.507812 212.109375 264.539062 211.765625 265.382812 211.519531 C 264.351562 210.027344 263.425781 208.785156 262.460938 207.574219 L 262.566406 207.703125 C 259.527344 203.992188 256.9375 199.726562 254.976562 195.132812 L 254.847656 194.792969 C 253.660156 192.339844 252.664062 190.484375 251.621094 188.664062 L 251.867188 189.121094 C 250.328125 186.300781 248.382812 182.777344 246.339844 178.820312 C 242.257812 170.890625 237.820312 161.28125 235.507812 151.921875 C 233.210938 142.570312 232.882812 132.894531 238.773438 126.070312 C 243.980469 120.007812 253.144531 117.496094 266.886719 118.902344 C 266.488281 117.671875 266.242188 116.648438 265.546875 115.003906 C 262.203125 107.132812 258.179688 100.34375 253.402344 94.191406 C 241.753906 79.132812 222.917969 64.226562 193.839844 63.746094 Z M 192.550781 63.746094 " fill-opacity="1" fill-rule="nonzero"/><path fill="#32648d" d="M 139.21875 136.59375 L 139.242188 136.582031 L 139.277344 136.546875 Z M 139.21875 136.59375 " fill-opacity="1" fill-rule="nonzero"/><path fill="#32648d" d="M 156.46875 128.640625 L 156.585938 128.628906 L 156.679688 128.59375 Z M 156.46875 128.640625 " fill-opacity="1" fill-rule="nonzero"/><path fill="#32648d" d="M 171.007812 197.285156 C 175.710938 184.433594 184.972656 175.0625 177.179688 138.484375 C 175.898438 132.492188 173.378906 130.074219 169.902344 128.710938 C 168.214844 128.089844 166.253906 127.726562 164.203125 127.726562 C 164.074219 127.726562 163.929688 127.726562 163.800781 127.726562 L 163.824219 127.726562 C 161.328125 127.75 158.910156 128.066406 156.585938 128.628906 C 151.65625 129.875 147.316406 131.636719 143.28125 133.890625 C 141.765625 134.726562 140.464844 135.59375 139.242188 136.570312 L 139.019531 136.78125 C 139.089844 138.496094 139.417969 142.652344 139.558594 148.773438 C 139.699219 155.46875 139.535156 164.007812 138.257812 173.253906 C 135.488281 193.335938 149.875 209.96875 166.769531 209.992188 C 167.769531 205.871094 169.386719 201.6875 171.007812 197.285156 Z M 161.019531 138.917969 C 160.46875 138.355469 160.023438 137.722656 159.660156 137.027344 L 159.636719 136.980469 C 159.332031 136.488281 159.15625 135.886719 159.15625 135.242188 C 159.15625 135.125 159.167969 135.007812 159.179688 134.890625 L 159.179688 134.902344 C 159.355469 133.632812 160.386719 132.976562 161.386719 132.613281 C 162.3125 132.304688 163.34375 132.128906 164.449219 132.128906 C 164.613281 132.128906 164.777344 132.128906 164.964844 132.140625 L 164.953125 132.09375 C 165.5625 132.09375 166.21875 132.152344 166.875 132.246094 C 168.648438 132.492188 170.234375 132.976562 171.429688 133.679688 C 172.027344 134.007812 172.542969 134.421875 172.953125 134.914062 L 172.964844 134.925781 C 173.367188 135.382812 173.601562 135.984375 173.601562 136.652344 C 173.601562 136.746094 173.601562 136.839844 173.589844 136.933594 L 173.589844 136.921875 C 173.472656 137.628906 173.15625 138.238281 172.71875 138.730469 C 172.238281 139.320312 171.699219 139.824219 171.089844 140.246094 L 171.066406 140.257812 C 169.878906 141.128906 168.390625 141.644531 166.78125 141.644531 C 166.464844 141.644531 166.148438 141.621094 165.84375 141.585938 L 165.878906 141.585938 C 163.929688 141.257812 162.265625 140.292969 161.019531 138.917969 Z M 161.019531 138.917969 " fill-opacity="1" fill-rule="nonzero"/><path fill="#32648d" d="M 143.042969 134.007812 C 143.128906 133.960938 143.210938 133.9375 143.28125 133.890625 C 143.292969 133.890625 143.304688 133.878906 143.316406 133.867188 Z M 143.042969 134.007812 " fill-opacity="1" fill-rule="nonzero"/><path fill="#32648d" d="M 259.65625 89.398438 C 264.738281 95.917969 269.140625 103.339844 272.53125 111.304688 L 272.777344 111.949219 C 274.054688 115.050781 274.914062 117.671875 275.394531 119.703125 C 275.640625 120.726562 275.804688 121.582031 275.863281 122.476562 C 275.886719 122.921875 275.910156 123.378906 275.722656 124.167969 C 275.722656 124.203125 275.664062 124.285156 275.652344 124.320312 C 276.003906 134.609375 273.480469 141.585938 273.1875 151.40625 C 272.953125 158.523438 274.75 166.886719 275.195312 176.011719 C 275.617188 184.585938 274.59375 194.007812 269.09375 203.25 C 269.5625 203.816406 269.972656 204.378906 270.417969 204.941406 C 284.957031 181.746094 295.433594 156.078125 301.019531 134.195312 C 304.011719 122.417969 305.597656 111.738281 305.738281 103.28125 C 305.855469 94.824219 304.292969 88.695312 302.324219 86.132812 C 286.765625 65.976562 265.726562 60.84375 248.078125 60.703125 L 248.078125 60.714844 L 246.386719 60.714844 C 239.582031 60.820312 233.011719 61.609375 226.660156 62.980469 C 241.070312 69.464844 251.984375 79.449219 259.65625 89.398438 Z M 259.65625 89.398438 " fill-opacity="1" fill-rule="nonzero"/><g clip-path="url(#8a69e78c50)"><path fill="#000000" d="M 194.488281 48.359375 L 194.371094 48.359375 C 180.710938 48.125 168.988281 51.484375 159.519531 57.074219 C 150.203125 53.796875 130.875 48.148438 110.496094 49.273438 C 96.308594 50.0625 80.820312 54.429688 69.34375 66.707031 C 57.902344 78.980469 51.859375 97.972656 53.125 123.8125 C 53.480469 130.945312 55.484375 142.570312 58.804688 157.628906 C 62.136719 172.6875 66.808594 190.320312 72.640625 206.398438 C 78.472656 222.492188 84.855469 236.9375 94.839844 246.757812 C 99.828125 251.679688 106.691406 255.8125 114.777344 255.472656 C 120.457031 255.238281 125.585938 252.714844 130.019531 248.988281 C 132.179688 251.867188 134.480469 253.125 136.578125 254.285156 C 139.21875 255.753906 141.789062 256.753906 144.453125 257.410156 C 149.242188 258.621094 157.429688 260.242188 167.03125 258.585938 C 170.304688 258.035156 173.742188 256.953125 177.167969 255.414062 C 177.296875 259.289062 177.449219 263.085938 177.589844 266.925781 C 178.070312 279.09375 178.363281 290.335938 181.96875 300.191406 C 182.542969 301.800781 184.136719 310.089844 190.390625 317.410156 C 196.644531 324.738281 208.921875 329.308594 222.882812 326.277344 C 232.738281 324.140625 245.261719 320.285156 253.589844 308.28125 C 261.816406 296.417969 265.523438 279.398438 266.265625 251.796875 C 266.453125 250.304688 266.675781 249.035156 266.898438 247.851562 L 268.859375 248.027344 L 269.09375 248.027344 C 279.605469 248.507812 291.011719 246.992188 300.539062 242.503906 C 308.976562 238.546875 315.359375 234.542969 320.019531 227.4375 C 321.179688 225.675781 322.449219 223.546875 322.800781 219.882812 C 323.152344 216.21875 321.074219 210.488281 317.625 207.84375 C 310.726562 202.535156 306.394531 204.554688 301.75 205.53125 C 297.605469 206.503906 292.820312 207.117188 287.914062 207.246094 L 287.820312 207.246094 C 301.21875 184.375 310.832031 160.085938 316.308594 138.589844 C 319.5625 125.90625 321.378906 114.207031 321.519531 103.976562 C 321.671875 93.746094 320.851562 84.6875 314.796875 76.855469 C 295.894531 52.375 269.316406 45.609375 248.746094 45.375 C 248.113281 45.363281 247.464844 45.351562 246.832031 45.363281 L 246.832031 45.328125 C 235.636719 45.421875 224.867188 47.113281 214.667969 50.132812 L 214.1875 50.296875 C 208.296875 49.191406 201.457031 48.488281 194.488281 48.359375 Z M 222.285156 55.839844 C 229.464844 54.066406 237.726562 52.996094 246.222656 52.890625 L 246.292969 52.890625 L 246.304688 52.84375 C 265.761719 52.65625 290.601562 58.191406 308.449219 81.292969 C 312.460938 86.484375 313.660156 94.074219 313.519531 103.421875 C 313.363281 112.761719 311.664062 123.941406 308.542969 136.195312 C 302.488281 159.921875 291.058594 187.582031 274.960938 212.402344 C 275.488281 212.789062 276.097656 213.128906 276.730469 213.386719 L 276.789062 213.410156 C 280.144531 214.820312 287.808594 216.03125 303.097656 212.847656 C 306.945312 212.023438 309.761719 211.472656 312.683594 213.726562 C 314 214.855469 314.820312 216.523438 314.820312 218.390625 C 314.820312 218.507812 314.820312 218.625 314.808594 218.742188 L 314.808594 218.730469 C 314.632812 220.222656 314.105469 221.5625 313.292969 222.679688 C 310.335938 227.175781 304.503906 231.441406 297.042969 234.953125 C 290.425781 238.078125 280.933594 239.710938 272.519531 239.804688 C 268.292969 239.851562 264.410156 239.523438 261.101562 238.476562 L 260.890625 238.394531 C 259.609375 250.84375 256.675781 275.429688 254.765625 286.648438 C 253.238281 295.691406 250.5625 302.878906 245.449219 308.257812 C 240.34375 313.640625 233.128906 316.878906 223.410156 318.996094 C 211.382812 321.613281 202.605469 318.796875 196.953125 313.96875 C 191.308594 309.152344 188.726562 302.761719 187.164062 298.851562 C 186.097656 296.148438 185.546875 292.648438 185.007812 287.972656 C 184.464844 283.300781 184.078125 277.578125 183.808594 271.128906 C 183.550781 264.578125 183.410156 256.871094 183.410156 249.128906 C 183.410156 246.582031 183.433594 244.042969 183.457031 241.496094 C 178.609375 246.007812 172.484375 249.175781 165.679688 250.386719 L 165.46875 250.421875 C 157.476562 251.796875 150.355469 250.445312 146.097656 249.367188 C 143.832031 248.789062 141.859375 247.980469 140.003906 246.96875 C 138.058594 245.914062 136.203125 244.703125 134.960938 242.339844 C 134.46875 241.4375 134.175781 240.34375 134.175781 239.195312 C 134.175781 238.734375 134.222656 238.277344 134.316406 237.855469 C 134.738281 236.28125 135.617188 234.941406 136.824219 234 L 136.835938 233.988281 C 139.136719 232.097656 142.164062 231.042969 146.753906 230.078125 C 155.085938 228.339844 157.992188 227.152344 159.765625 225.734375 C 161.269531 224.511719 162.980469 222.042969 165.984375 218.425781 C 165.972656 218.320312 165.960938 218.144531 165.949219 217.980469 L 165.949219 217.945312 C 160.269531 217.78125 154.976562 216.242188 150.355469 213.644531 L 150.53125 213.738281 C 148.792969 215.597656 139.910156 225.109375 129.09375 238.3125 C 124.539062 243.832031 119.507812 247.003906 114.203125 247.226562 C 108.898438 247.449219 104.097656 244.75 100.015625 240.742188 C 91.859375 232.722656 85.359375 218.921875 79.691406 203.320312 C 74.035156 187.722656 69.4375 170.351562 66.164062 155.550781 C 62.878906 140.75 60.953125 128.816406 60.671875 123.0625 C 59.453125 98.605469 65.09375 82.128906 74.777344 71.734375 C 84.46875 61.335938 97.75 57.402344 110.695312 56.652344 C 133.9375 55.300781 156 63.511719 160.46875 65.273438 C 169.082031 59.351562 180.171875 55.664062 194.007812 55.898438 C 200.976562 56.003906 207.675781 56.933594 214.082031 58.589844 L 213.496094 58.460938 L 213.730469 58.355469 C 215.972656 57.507812 218.835938 56.652344 221.769531 55.945312 Z M 222.285156 55.839844 " fill-opacity="1" fill-rule="nonzero"/></g></svg>